<svg width="24" height="24" fill="none" xmlns="http://www.w3.org/2000/svg"><path d="M12 17.063a5.124 5.124 0 1 1 0-10.248 5.124 5.124 0 0 1 0 10.248Zm11.993-2.829a.533.533 0 0 1-.335.414l-3.807 1.457 1.23 3.715a.533.533 0 0 1-.612.69l-3.992-.826-.966 3.793a.532.532 0 0 1-.888.25l-2.918-2.846-2.858 2.673a.533.533 0 0 1-.882-.268l-.923-3.97-3.849.712a.533.533 0 0 1-.599-.702l1.363-3.842L.332 14.01a.532.532 0 0 1-.126-.914l3.218-2.501-2.258-3.197a.532.532 0 0 1 .386-.837l4.06-.372-.18-3.91a.533.533 0 0 1 .778-.497l3.619 1.875 1.957-3.39a.533.533 0 0 1 .922 0l2.102 3.642 3.622-1.78a.532.532 0 0 1 .766.513l-.271 4.067 3.889.439a.533.533 0 0 1 .369.845l-2.421 3.28 3.039 2.465c.148.12.22.31.19.497ZM12 18.313a6.332 6.332 0 0 0 4.507-1.867 6.332 6.332 0 0 0 1.867-4.507 6.332 6.332 0 0 0-1.867-4.507A6.332 6.332 0 0 0 12 5.566a6.332 6.332 0 0 0-4.507 1.866 6.332 6.332 0 0 0-1.867 4.507c0 1.703.663 3.303 1.867 4.507A6.332 6.332 0 0 0 12 18.313Z" fill="#FBC531"/></svg>